<svg xmlns="http://www.w3.org/2000/svg" xmlns:xlink="http://www.w3.org/1999/xlink" viewBox="0 0 24 30" version="1.1" x="0px" y="0px">
    <g stroke="none" stroke-width="1" fill="none" fill-rule="evenodd"><g fill="currentColor"><path d="M22,19.5 C22,19.771 21.771,20 21.5,20 C21.229,20 21,19.771 21,19.5 L21,6 C21,4.346 19.654,3 18,3 L12,3 L6,3 L6,2 L22,2 L22,19.5 Z M13,8 C13,8.552 12.553,9 12,9 L5,9 C4.447,9 4,8.552 4,8 L4,5 L5,5 L6,5 L6,7 L11,7 L11,5 L13,5 L13,8 Z M13,15 C13,15.552 12.553,16 12,16 L5,16 C4.447,16 4,15.552 4,15 L4,12 C4,11.448 4.447,11 5,11 L12,11 C12.553,11 13,11.448 13,12 L13,15 Z M23,0 L5,0 C4.447,0 4,0.448 4,1 L4,3 L1,3 C0.447,3 0,3.448 0,4 L0,23 C0,23.552 0.447,24 1,24 L4,24 L4,19 C4,18.448 4.447,18 5,18 L12,18 C12.553,18 13,18.448 13,19 L13,24 L16,24 C16.553,24 17,23.552 17,23 L17,6 C17,5.505 17.505,5 18,5 C18.552,5 19,5.449 19,6 L19,19.5 C19,20.878 20.121,22 21.5,22 C22.879,22 24,20.878 24,19.5 L24,1 C24,0.448 23.553,0 23,0 L23,0 Z"/><polygon points="6 14 11 14 11 13 6 13"/><polygon points="6 24 11 24 11 20 6 20"/>
    </g>
</g>
</svg>