<svg xmlns="http://www.w3.org/2000/svg" xmlns:xlink="http://www.w3.org/1999/xlink" viewBox="0 0 24 25" version="1.1" x="0px" y="0px">
    <g fill="currentColor">
        <path d="M15.5146,11.8574 L10.5146,14.8574 C10.3566,14.9524 10.1776,15.0004 9.9996,15.0004 C9.8296,15.0004 9.6606,14.9574 9.5066,14.8704 C9.1936,14.6924 8.9996,14.3604 8.9996,14.0004 L8.9996,8.0004 C8.9996,7.6394 9.1936,7.3074 9.5066,7.1294 C9.8206,6.9524 10.2046,6.9564 10.5146,7.1424 L15.5146,10.1424 C15.8156,10.3234 15.9996,10.6494 15.9996,11.0004 C15.9996,11.3514 15.8156,11.6764 15.5146,11.8574 M20.9996,3.0004 L12.4106,3.0004 L9.6686,0.2894 C9.4816,0.1044 9.2296,0.0004 8.9656,0.0004 L2.8966,0.0004 C1.2996,0.0004 -0.0004,1.3264 -0.0004,2.9564 L-0.0004,17.0434 C-0.0004,18.6734 1.2996,20.0004 2.8966,20.0004 L21.1036,20.0004 C22.7006,20.0004 23.9996,18.6734 23.9996,17.0434 L23.9996,6.0864 C23.9996,4.4424 22.5976,3.0004 20.9996,3.0004"/>
    </g>
</svg>