<svg xmlns:dc="http://purl.org/dc/elements/1.1/" xmlns:cc="http://creativecommons.org/ns#" xmlns:rdf="http://www.w3.org/1999/02/22-rdf-syntax-ns#" xmlns:svg="http://www.w3.org/2000/svg" xmlns="http://www.w3.org/2000/svg" xmlns:sodipodi="http://sodipodi.sourceforge.net/DTD/sodipodi-0.dtd" xmlns:inkscape="http://www.inkscape.org/namespaces/inkscape" version="1.1" x="0px" y="0px" viewBox="0 0 100 125"><g transform="translate(0,-952.36218)"><path style="text-indent:0;text-transform:none;direction:ltr;block-progression:tb;baseline-shift:baseline;color:#000000;enable-background:accumulate;" d="m 19.999306,966.36217 c -9.9197,0 -17.9992998,8.07949 -17.9992998,17.99908 l 0,21.99885 c 0,9.9196 8.0795998,17.9991 17.9992998,17.9991 l 42.6234,0 c -0.8941,-1.831 -1.4288,-3.8586 -1.5625,-5.9997 l -41.0609,0 c -6.6996,0 -11.9994998,-5.2998 -11.9994998,-11.9994 l 0,-21.99885 c 0,-6.69954 5.2998998,-11.99939 11.9994998,-11.99939 l 45.9983,0 c 6.6996,0 11.9995,5.29985 11.9995,11.99939 l 0,17.06165 c 2.1411,0.1336 4.1687,0.6683 5.9998,1.5624 l 0,-18.62405 c 0,-9.91959 -8.0796,-17.99908 -17.9993,-17.99908 z m 15.0932,17.99908 0,22.31135 c -0.1394,2.6286 2.4996,3.4386 4.3436,2.3749 l 18.0306,-10.99946 c 0.882,-0.53855 1.4373,-1.60952 1.4373,-2.68736 0,-1.07785 -0.5553,-2.14881 -1.4373,-2.68736 l -18.0306,-10.99944 c -2.1622,-0.81069 -4.4964,-0.0512 -4.3436,2.68737 z m 5.8435,5.34347 9.2184,5.65596 -9.2184,5.65592 z m 36.0611,13.65558 c -7.6961,0 -13.9994,6.3032 -13.9994,13.9993 0,7.6961 6.3033,13.9992 13.9994,13.9992 2.7667,0 5.3525,-0.8174 7.531,-2.2186 l 8.3434,8.3433 c 1.1716,1.1716 3.0784,1.1716 4.2499,0 1.1715,-1.1715 1.1714,-3.0782 0,-4.2498 l -8.3435,-8.3433 c 1.4012,-2.1784 2.2187,-4.7642 2.2187,-7.5308 0,-7.6961 -6.3033,-13.9993 -13.9995,-13.9993 z m 0,5.9997 c 4.4537,0 7.9997,3.546 7.9997,7.9996 0,4.4535 -3.546,7.9995 -7.9997,7.9995 -4.4536,0 -7.9997,-3.546 -7.9997,-7.9995 0,-4.4536 3.5461,-7.9996 7.9997,-7.9996 z" fill="currentColor" fill-opacity="1" stroke="none" marker="none" visibility="visible" display="inline" overflow="visible"/></g></svg>